<svg width="512" height="512" viewBox="0 0 512 512" xmlns="http://www.w3.org/2000/svg">
  <defs>
    <linearGradient id="ch-bg" x1="0%" y1="0%" x2="100%" y2="100%">
      <stop offset="0%" stop-color="#250808" />
      <stop offset="100%" stop-color="#120305" />
    </linearGradient>
    <linearGradient id="ch-halo" x1="0%" y1="0%" x2="100%" y2="0%">
      <stop offset="0%" stop-color="#ffa07a" />
      <stop offset="100%" stop-color="#ff1f73" />
    </linearGradient>
  </defs>
  <rect width="512" height="512" rx="48" fill="url(#ch-bg)" />
  <circle cx="256" cy="180" r="100" fill="#1c0508" stroke="#ff487a" stroke-width="10" />
  <circle cx="256" cy="180" r="130" fill="none" stroke="url(#ch-halo)" stroke-width="22" opacity="0.5" />
  <path d="M192 220c40 18 88 18 128 0" fill="none" stroke="#ffd6c2" stroke-width="10" stroke-linecap="round" />
  <circle cx="216" cy="190" r="18" fill="#fff" />
  <circle cx="296" cy="190" r="18" fill="#fff" />
  <path d="M156 348c52-72 148-72 200 0" fill="none" stroke="#ffa07a" stroke-width="14" stroke-linecap="round" />
  <path d="M112 372c32-48 72-72 120-72s88 24 120 72" fill="none" stroke="#7cf5ff" stroke-width="10" stroke-linecap="round" opacity="0.7" />
  <path d="M308 360c24-56 96-68 124-28" fill="none" stroke="#ff4770" stroke-width="10" stroke-linecap="round" />
  <path d="M204 360c-24-56-96-68-124-28" fill="none" stroke="#ff4770" stroke-width="10" stroke-linecap="round" />
  <path d="M176 440c40-60 120-60 160 0" fill="none" stroke="#ffa07a" stroke-width="12" stroke-linecap="round" />
  <path d="M80 280c36-8 72-56 72-120" fill="none" stroke="#ff1f73" stroke-width="10" stroke-linecap="round" />
  <path d="M432 280c-36-8-72-56-72-120" fill="none" stroke="#ff1f73" stroke-width="10" stroke-linecap="round" />
  <path d="M256 112l96 32-96 32z" fill="url(#ch-halo)" opacity="0.8" />
</svg>
